# AST/ASF file generated using VICON BodyLanguage
# -----------------------------------------------
:version 1.10
:name VICON
:units
  mass 1.0
  length 0.45
  angle deg
:documentation
   .ast/.asf automatically generated from VICON data using
   VICON BodyBuilder and BodyLanguage model FoxedUp or BRILLIANT.MOD
:root
   order TX TY TZ RX RY RZ
   axis XYZ
   position 0 0 0  
   orientation 0 -0 0 
:bonedata
  begin
     id 1 
     name lhipjoint
     direction 0.500677 -0.737119 0.453848 
     length 2.34727 
     axis 0 -0 0  XYZ
  end
  begin
     id 2 
     name lfemur
     direction 0.34202 -0.939693 0  
     length 7.53653  
     axis 0 -0 20  XYZ
    dof rx ry rz
    limits (-160.0 20.0)
           (-70.0 70.0)
           (-60.0 70.0)
  end
  begin
     id 3 
     name ltibia
     direction 0.34202 -0.939693 0   
     length 6.85572   
     axis 0 -0 20   XYZ
    dof rx
    limits (-10.0 170.0)
  end
  begin
     id 4 
     name lfoot
     direction 0.155313 -0.426718 0.890949   
     length 2.18324   
     axis -90 -1.13533e-015 20   XYZ
    dof rx rz
    limits (-45.0 90.0)
           (-70.0 20.0)
  end
  begin
     id 5 
     name ltoes
     direction 1.53474e-011 -4.21647e-011 1   
     length 1.06748   
     axis -90 -1.13533e-015 20   XYZ
    dof rx
    limits (-90.0 20.0)
  end
  begin
     id 6 
     name rhipjoint
     direction -0.632471 -0.659587 0.406111   
     length 2.62319  
     axis 0 -0 0  XYZ 
  end
  begin
     id 7 
     name rfemur
     direction -0.34202 -0.939693 0   
     length 7.21735   
     axis 0 -0 -20   XYZ
    dof rx ry rz
    limits (-160.0 20.0)
           (-70.0 70.0)
           (-70.0 60.0)
  end
  begin
     id 8 
     name rtibia
     direction -0.34202 -0.939693 0   
     length 7.02558   
     axis 0 -0 -20   XYZ
    dof rx
    limits (-10.0 170.0)
 end
 begin
     id 9 
     name rfoot
     direction -0.16057 -0.441164 0.882945   
     length 2.10014  
     axis -90 1.13533e-015 -20   XYZ
    dof rx rz
    limits (-45.0 90.0)
           (-20.0 70.0)
  end
  begin
     id 10 
     name rtoes
     direction -1.53553e-011 -4.2192e-011 1   
     length 1.02554   
     axis -90 1.13533e-015 -20   XYZ
    dof rx
    limits (-90.0 20.0)
  end
  begin
     id 11 
     name lowerback
     direction 0.0401429 0.998861 -0.0258085   
     length 1.80848   
     axis 0 -0 0   XYZ
    dof rx ry rz
    limits (-20.0 45.0)
           (-30.0 30.0)
           (-30.0 30.0)
  end
  begin
     id 12 
     name upperback
     direction -0.0130978 0.999914 -0.000352645   
     length 1.8116   
     axis 0 -0 0   XYZ
    dof rx ry rz
    limits (-20.0 45.0)
           (-30.0 30.0)
           (-30.0 30.0)
  end
  begin
     id 13 
     name thorax
     direction -0.0300198 0.999453 0.0138573   
     length 1.81778   
     axis 0 -0 0   XYZ
    dof rx ry rz
    limits (-20.0 45.0)
           (-30.0 30.0)
           (-30.0 30.0)
  end
  begin
     id 14 
     name lowerneck
     direction -0.0401726 0.999191 -0.00173647   
     length 2.10594   
     axis 0 -0 0   XYZ
    dof rx ry rz
    limits (-20.0 45.0)
           (-30.0 30.0)
           (-30.0 30.0)
  end
  begin
     id 15 
     name upperneck
     direction 0.0119835 0.998501 0.0534085   
     length 2.07325   
     axis 0 -0 0   XYZ
    dof rx ry rz
    limits (-20.0 45.0)
           (-30.0 30.0)
           (-30.0 30.0)
  end
  begin
     id 16
     name head
     direction 0.00628309 0.999826 0.0175921  
     length 2.15096  
     axis 0 -0 0   XYZ
    dof rx ry rz
    limits (-20.0 45.0)
           (-30.0 30.0)
           (-30.0 30.0)
  end
  begin
     id 17 
     name lclavicle
     direction 0.895501 0.429681 -0.115981  
     length 4.18092  
     axis 0 -0 0   XYZ
    dof ry rz
    limits (-20.0 10.0)
           (0.0 20.0)
  end
  begin
     id 18 
     name lhumerus
     direction 1 -4.48961e-011 -3.38433e-028   
     length 5.77237   
     axis 180 -30 -90   XYZ
    dof rx ry rz
    limits (-60.0 90.0)
           (-90.0 90.0)
           (-90.0 90.0)
  end
  begin
     id 19
     name lradius
     direction 1 -4.4901e-011 1.11983e-026   
     length 2.91878   
     axis 180 -30 -90   XYZ
    dof rx
    limits (-10.0 170.0)
  end
  begin
     id 20
     name lwrist
     direction 1 -4.48934e-011 1.88176e-026   
     length 1.45939   
     axis -1.23311e-014 90 90   XYZ
    dof ry
    limits (-180.0 0.0)
 end
  begin
     id 21 
     name lhand
     direction 1 -4.4895e-011 3.76352e-026   
     length 1.06566   
     axis -2.40147e-014 90 90   XYZ
    dof rx rz
    limits (-90.0 90.0)
           (-45.0 45.0)
  end
  begin
     id 22 
     name lfingers
     direction 1 -4.49005e-011 7.52705e-026   
     length 0.859162   
     axis -4.80295e-014 90 90   XYZ
    dof rx
    limits (0.0 90.0)
  end
  begin
     id 23
     name lthumb
     direction 0.707107 -6.34885e-011 0.707107   
     length 1.23359   
     axis -90 45 -9.86935e-015   XYZ
    dof rx rz
    limits (-45.0 45.0)
           (-45.0 45.0)
  end
  begin
     id 24 
     name rclavicle
     direction -0.91006 0.40451 -0.0903492   
     length 4.23293  
     axis 0 -0 0   XYZ 
    dof ry rz
    limits (-10.0 20.0)
           (-20.0 0.0)
  end
  begin
     id 25 
     name rhumerus
     direction -1 -4.4897e-011 1.7415e-027  
     length 5.49854   
     axis 180 30 90   XYZ
    dof rx ry rz
    limits (-90.0 60.0)
           (-90.0 90.0)
           (-90.0 90.0)
  end
  begin
     id 26 
     name rradius
     direction -1 -4.48963e-011 1.21259e-026   
     length 3.1186   
     axis 180 30 90   XYZ
    dof rx
    limits (-10.0 170.0)
  end
  begin
     id 27 
     name rwrist
     direction -1 -4.48967e-011 1.88176e-026   
     length 1.5593   
     axis -1.23311e-014 -90 -90   XYZ
    dof ry
    limits (-180.0 0.0)
  end
  begin
     id 28
     name rhand
     direction -1 -4.4895e-011 3.76352e-026   
     length 0.71207   
     axis -2.40147e-014 -90 -90   XYZ
    dof rx rz
    limits (-90.0 90.0)
           (-45.0 45.0)
  end
  begin
     id 29
     name rfingers
     direction -1 -4.49005e-011 7.52705e-026   
     length 0.574089   
     axis -4.80295e-014 -90 -90   XYZ
    dof rx
    limits (0.0 90.0)
  end
  begin
     id 30
     name rthumb
     direction -0.707107 -6.34982e-011 0.707107   
     length 0.824281   
     axis -90 -45 9.86935e-015   XYZ
    dof rx rz
    limits (-45.0 45.0)
           (-45.0 45.0)
  end
:hierarchy
  begin
    root lhipjoint rhipjoint lowerback
    lhipjoint lfemur
    lfemur ltibia
    ltibia lfoot
    lfoot ltoes
    rhipjoint rfemur
    rfemur rtibia
    rtibia rfoot
    rfoot rtoes
    lowerback upperback
    upperback thorax
    thorax lowerneck lclavicle rclavicle
    lowerneck upperneck
    upperneck head
    lclavicle lhumerus
    lhumerus lradius
    lradius lwrist
    lwrist lhand lthumb
    lhand lfingers
    rclavicle rhumerus
    rhumerus rradius
    rradius rwrist
    rwrist rhand rthumb
    rhand rfingers
  end

#!OML:ASF C:\ViconDB\ViconDB\414\Spring2016\042216\male.ASF
:FULLY-SPECIFIED
:DEGREES
136
root -16.6227 16.9981 14.2863 -148.752 73.0258 -153.651
lowerback 6.04259 -1.74235 9.47578
upperback 1.67927 -1.69221 -0.165226
thorax -1.9226 -0.850712 -5.36484
lowerneck 3.76223 6.63807 -5.02836
upperneck -17.2596 8.89975 -0.611133
head -6.05158 4.84589 0.0373437
rclavicle 2.10712e-014 1.27222e-014
rhumerus -19.2321 -1.34269 -49.344
rradius 32.4163
rwrist 27.2011
rhand 4.14227 -24.7308
rfingers 7.12502
rthumb 29.5515 -52.3983
lclavicle 2.10712e-014 1.27222e-014
lhumerus -30.2197 26.2385 29.5836
lradius 43.0435
lwrist -5.54896
lhand -33.4893 12.8786
lfingers 7.12502
lthumb -6.68659 42.753
rfemur -1.98926 5.1412 28.2968
rtibia 11.5413
rfoot -15.2814 -5.10484
rtoes -19.073
lfemur -38.8858 2.6945 -6.5388
ltibia 65.0312
lfoot -35.0035 20.4802
ltoes -11.8833
137
root -16.5266 17.024 14.2088 -148.359 73.1772 -153.397
lowerback 5.66087 -1.59207 9.51355
upperback 1.66067 -1.5402 -0.34351
thorax -1.70888 -0.768579 -5.59423
lowerneck 3.72425 6.62524 -5.25211
upperneck -17.4219 8.84454 -0.780635
head -6.09911 4.85015 0.0207395
rclavicle 4.12478e-014 -4.13472e-014
rhumerus -18.7398 -1.30942 -47.3283
rradius 32.4963
rwrist 26.5336
rhand 4.29958 -25.2373
rfingers 7.12502
rthumb 29.7017 -52.8781
lclavicle 4.12478e-014 -4.13472e-014
lhumerus -29.7014 26.0194 27.7179
lradius 43.2254
lwrist -5.408
lhand -33.4061 13.1035
lfingers 7.12502
lthumb -6.60623 42.9805
rfemur -0.164948 5.24336 28.2055
rtibia 8.44541
rfoot -13.7114 -5.03662
rtoes -19.1506
lfemur -39.5987 2.87781 -6.21132
ltibia 65.6887
lfoot -34.98 20.6101
ltoes -11.7891
138
root -16.4265 17.0619 14.1241 -148.4 73.3321 -153.658
lowerback 5.19519 -1.49458 9.43839
upperback 1.62496 -1.47409 -0.563778
thorax -1.47798 -0.729228 -5.79742
lowerneck 3.54304 6.63693 -5.37139
upperneck -17.3748 8.82927 -0.98026
head -6.05014 4.86552 -0.0132662
rclavicle 3.37934e-015 1.66979e-014
rhumerus -18.1973 -1.46127 -45.4733
rradius 32.6104
rwrist 26.3168
rhand 4.48938 -25.5608
rfingers 7.12502
rthumb 29.8828 -53.1693
lclavicle 3.37934e-015 1.66979e-014
lhumerus -29.3709 26.1989 25.7687
lradius 43.4685
lwrist -5.20511
lhand -33.2669 12.897
lfingers 7.12502
lthumb -6.47184 42.7781
rfemur 2.89773 5.28301 27.9103
rtibia 2.76157
rfoot -10.8306 -4.87015
rtoes -19.098
lfemur -40.271 2.763 -6.01327
ltibia 66.2005
lfoot -34.9229 20.7487
ltoes -12.382
139
root -16.325 17.1093 14.0377 -148.959 73.5994 -154.569
lowerback 4.64189 -1.38881 9.1771
upperback 1.56688 -1.41508 -0.896094
thorax -1.22083 -0.693659 -6.01347
lowerneck 3.42323 6.64279 -5.41925
upperneck -17.4257 8.82457 -1.10688
head -6.04257 4.87838 -0.0413403
rclavicle 1.25234e-014 -2.62396e-014
rhumerus -17.6538 -1.93762 -43.7979
rradius 32.6507
rwrist 26.4814
rhand 4.66385 -25.7928
rfingers 7.12502
rthumb 30.0493 -53.3711
lclavicle 1.25234e-014 -2.62396e-014
lhumerus -29.0147 25.7499 24.0352
lradius 43.9786
lwrist -4.32327
lhand -33.4781 13.4906
lfingers 7.12502
lthumb -6.67576 43.3654
rfemur 4.40838 5.34075 27.2958
rtibia -1.59028e-015
rfoot -9.51177 -4.87807
rtoes -19.2746
lfemur -41.006 2.72921 -6.08754
ltibia 66.5495
lfoot -34.719 20.8521
ltoes -12.8362
140
root -16.2167 17.1552 13.9556 -148.659 73.7163 -154.524
lowerback 4.09273 -1.29914 8.99741
upperback 1.53836 -1.36424 -1.04783
thorax -0.933731 -0.658248 -6.08394
lowerneck 3.17135 6.68128 -5.63707
upperneck -17.3189 8.87499 -1.10179
head -5.9783 4.91579 0.00316356
rclavicle 1.51076e-014 2.22639e-014
rhumerus -17.1054 -2.5456 -42.1656
rradius 32.8067
rwrist 26.633
rhand 4.71195 -25.8501
rfingers 7.12502
rthumb 30.0952 -53.4201
lclavicle 1.51076e-014 2.22639e-014
lhumerus -28.7112 26.4348 22.2704
lradius 44.201
lwrist -4.04364
lhand -33.459 13.7368
lfingers 7.12502
lthumb -6.65737 43.6121
rfemur 4.67894 5.39842 27.1296
rtibia -1.11319e-014
rfoot -9.61554 -5.05137
rtoes -19.7765
lfemur -41.5925 2.70751 -5.73554
ltibia 66.7861
lfoot -34.2422 20.6335
ltoes -13.0308
141
root -16.1069 17.1998 13.8707 -148.805 73.8778 -154.88
lowerback 3.46585 -1.21686 8.68895
upperback 1.64198 -1.33451 -1.2233
thorax -0.466931 -0.620011 -6.10716
lowerneck 2.64479 6.71239 -5.90509
upperneck -17.0666 8.94058 -1.04884
head -5.82653 4.95993 0.0838605
rclavicle 3.57812e-015 -7.95139e-016
rhumerus -16.5293 -3.17036 -40.6491
rradius 33.1307
rwrist 26.5395
rhand 4.58503 -26.3205
rfingers 7.12502
rthumb 29.9741 -53.9125
lclavicle 3.57812e-015 -7.95139e-016
lhumerus -28.3891 27.114 20.7841
lradius 44.6028
lwrist -3.1515
lhand -33.6587 13.9171
lfingers 7.12502
lthumb -6.85015 43.7862
rfemur 5.01071 5.42916 26.805
rtibia -1.43125e-014
rfoot -9.59046 -5.18099
rtoes -20.1471
lfemur -42.007 2.42673 -5.50596
ltibia 66.9012
lfoot -33.5712 20.5925
ltoes -13.6366
142
root -16.0031 17.2464 13.7853 -149.544 74.0791 -155.821
lowerback 3.22519 -1.15658 8.12998
upperback 1.56963 -1.29516 -1.4111
thorax -0.39449 -0.603086 -5.99231
lowerneck 2.37303 6.70968 -6.10971
upperneck -16.8521 8.94652 -0.975693
head -5.7267 4.96645 0.153841
rclavicle -7.15625e-015 9.54166e-015
rhumerus -16.2703 -3.92311 -39.1893
rradius 33.5648
rwrist 26.7375
rhand 4.37995 -26.4971
rfingers 7.12502
rthumb 29.7784 -54.1242
lclavicle -7.15625e-015 9.54166e-015
lhumerus -28.2106 27.7692 19.4234
lradius 45.1241
lwrist -2.2343
lhand -33.659 14.1701
lfingers 7.12502
lthumb -6.85036 44.0393
rfemur 5.35938 5.40908 26.3477
rtibia -3.18055e-015
rfoot -9.33363 -5.47106
rtoes -20.9145
lfemur -42.3662 2.2044 -5.51474
ltibia 66.8907
lfoot -32.5892 20.3636
ltoes -13.5498
143
root -15.9025 17.2878 13.6978 -149.401 74.1096 -155.862
lowerback 3.2599 -1.15583 7.75033
upperback 1.30567 -1.29894 -1.45081
thorax -0.682683 -0.628917 -5.81467
lowerneck 2.21854 6.79348 -6.31405
upperneck -16.5033 9.0584 -0.857112
head -5.60995 5.01386 0.229478
rclavicle -2.04748e-014 -3.57812e-014
rhumerus -16.1659 -4.16247 -37.8567
rradius 34.0918
rwrist 26.4496
rhand 3.63452 -26.7855
rfingers 7.12502
rthumb 29.0667 -54.5377
lclavicle -2.04748e-014 -3.57812e-014
lhumerus -28.3493 28.1276 18.1289
lradius 45.6976
lwrist -1.31777
lhand -33.9584 14.5062
lfingers 7.12502
lthumb -7.13942 44.3658
rfemur 5.67897 5.37099 26.2142
rtibia -1.90833e-014
rfoot -9.02502 -5.91711
rtoes -21.7626
lfemur -42.6797 1.89085 -5.22118
ltibia 66.7596
lfoot -31.5856 20.1411
ltoes -13.3518
144
root -15.8002 17.3366 13.6066 -149.399 74.0893 -156.134
lowerback 3.20387 -1.12485 7.49549
upperback 1.04205 -1.2676 -1.5627
thorax -0.917586 -0.633304 -5.78712
lowerneck 2.00754 6.81948 -6.46922
upperneck -16.1297 9.10094 -0.740223
head -5.47169 5.0253 0.304256
rclavicle -5.96354e-016 2.62396e-014
rhumerus -16.3789 -4.36992 -36.6958
rradius 34.7486
rwrist 25.6965
rhand 2.45131 -27.4173
rfingers 7.12502
rthumb 27.9361 -55.359
lclavicle -5.96354e-016 2.62396e-014
lhumerus -28.2879 28.3346 17.1398
lradius 46.3075
lwrist -0.369908
lhand -34.342 14.7009
lfingers 7.12502
lthumb -7.50967 44.5476
rfemur 5.86838 5.26572 26.0488
rtibia -1.59028e-015
rfoot -8.47225 -6.30377
rtoes -22.0606
lfemur -42.9962 1.59182 -5.05105
ltibia 66.4558
lfoot -30.0936 19.6842
ltoes -12.589
145
root -15.7096 17.3826 13.5077 -149.312 74.1642 -156.37
lowerback 3.21041 -1.06205 7.32391
upperback 0.79043 -1.1865 -1.68405
thorax -1.16915 -0.611978 -5.81858
lowerneck 1.70355 6.83381 -6.77264
upperneck -15.7977 9.1399 -0.560287
head -5.34165 5.04257 0.423697
rclavicle 2.78299e-015 -1.51076e-014
rhumerus -16.7567 -4.31827 -35.5873
rradius 35.5614
rwrist 24.3754
rhand 1.16991 -27.0376
rfingers 7.12502
rthumb 26.7105 -55.1725
lclavicle 2.78299e-015 -1.51076e-014
lhumerus -28.2394 28.6103 16.3692
lradius 46.8635
lwrist 0.378466
lhand -34.5843 14.8038
lfingers 7.12502
lthumb -7.74359 44.642
rfemur 5.87532 5.25117 25.7824
rtibia -2.22639e-014
rfoot -7.63784 -6.8185
rtoes -23.15
lfemur -43.2212 1.37251 -5.07224
ltibia 65.9485
lfoot -28.5303 19.2269
ltoes -12.8573
146
root -15.6083 17.4348 13.4145 -149.498 74.136 -156.783
lowerback 3.14749 -1.06702 7.03835
upperback 0.627564 -1.20645 -1.80993
thorax -1.30303 -0.632285 -5.78685
lowerneck 1.64249 6.87621 -6.9929
upperneck -15.8021 9.21019 -0.403735
head -5.35366 5.07977 0.503261
rclavicle -9.34288e-015 -1.27222e-014
rhumerus -17.1403 -4.42565 -34.7988
rradius 36.2558
rwrist 23.1056
rhand -0.0340497 -28.079
rfingers 7.12502
rthumb 25.5578 -56.3844
lclavicle -9.34288e-015 -1.27222e-014
lhumerus -28.2525 28.664 15.6214
lradius 47.3565
lwrist 1.11671
lhand -34.7401 14.8355
lfingers 7.12502
lthumb -7.89391 44.6681
rfemur 6.03581 5.11319 25.5452
rtibia -2.54444e-014
rfoot -6.75536 -7.3108
rtoes -23.7309
lfemur -43.18 1.02965 -5.11121
ltibia 65.1912
lfoot -26.8885 18.8269
ltoes -13.2116
147
root -15.5059 17.489 13.3263 -149.548 74.0758 -157.029
lowerback 3.08637 -1.07949 6.77692
upperback 0.530539 -1.23642 -1.96548
thorax -1.37202 -0.652323 -5.80004
lowerneck 1.29207 6.9546 -7.11093
upperneck -15.6258 9.36221 -0.225245
head -5.2594 5.14853 0.584886
rclavicle 9.34288e-015 -2.06736e-014
rhumerus -17.6718 -4.53079 -34.2448
rradius 36.9186
rwrist 21.7655
rhand -1.0135 -28.2695
rfingers 7.12502
rthumb 24.6193 -56.7062
lclavicle 9.34288e-015 -2.06736e-014
lhumerus -28.2255 28.424 15.0572
lradius 47.7896
lwrist 1.68063
lhand -34.9616 14.9125
lfingers 7.12502
lthumb -8.10769 44.737
rfemur 6.14485 4.96622 25.4275
rtibia 1.90833e-014
rfoot -5.61711 -7.91041
rtoes -24.4563
lfemur -42.9148 0.799218 -5.16962
ltibia 64.1887
lfoot -25.2527 18.2009
ltoes -13.0173
